<svg width="120" height="125" viewBox="0 0 120 125" fill="none" xmlns="http://www.w3.org/2000/svg">
<path d="M60 2.82864C44.087 2.82864 28.8258 9.12477 17.5736 20.3319C6.32141 31.5391 0 46.7393 0 62.5886C0 78.438 6.32141 93.6382 17.5736 104.845C28.8258 116.053 44.087 122.349 60 122.349C75.913 122.349 91.1742 116.053 102.426 104.845C113.679 93.6382 120 78.438 120 62.5886C120 46.7393 113.679 31.5391 102.426 20.3319C91.1742 9.12477 75.913 2.82864 60 2.82864ZM75.815 111.308H75.35C75.0009 111.326 74.6519 111.273 74.3237 111.153C73.9955 111.033 73.695 110.849 73.44 110.611C72.9696 110.11 72.7178 109.444 72.74 108.758V101.756C72.7733 99.4257 72.79 97.0751 72.79 94.7047C72.7818 92.9696 72.5276 91.2445 72.035 89.5802C71.568 87.9012 70.6275 86.3907 69.325 85.2277C72.8101 84.8934 76.236 84.1048 79.515 82.8821C82.2812 81.8346 84.7832 80.1959 86.845 78.0814C88.8795 75.9518 90.3938 73.3837 91.27 70.5766C92.3313 67.144 92.8377 63.5652 92.77 59.9741C92.7938 57.4652 92.3531 54.9735 91.47 52.6237C90.576 50.2546 89.2256 48.0825 87.495 46.2293C87.8717 45.2898 88.1417 44.322 88.305 43.326C88.6815 41.0503 88.6136 38.7236 88.105 36.4735C87.8384 35.1798 87.4689 33.9092 87 32.6738C86.823 32.6059 86.6347 32.5721 86.445 32.5742H85.895C84.7506 32.5887 83.6147 32.7734 82.525 33.122C81.325 33.4739 80.1533 33.9072 79.01 34.4218C77.8787 34.9323 76.7755 35.5025 75.705 36.1299C74.6317 36.7673 73.6767 37.3683 72.84 37.9327C64.4279 35.6032 55.5371 35.6032 47.125 37.9327C46.1864 37.3089 45.2328 36.7078 44.265 36.1299C43.1821 35.4909 42.0599 34.9204 40.905 34.4218C39.7683 33.893 38.5892 33.4599 37.38 33.127C36.3118 32.7735 35.1955 32.5854 34.07 32.5692H33.52C33.332 32.5678 33.1454 32.6016 32.97 32.6688C32.5023 33.9102 32.1182 35.1813 31.82 36.4735C31.5533 37.7395 31.4175 39.0295 31.415 40.3231C31.415 41.3323 31.5 42.3333 31.67 43.326C31.8367 44.322 32.1033 45.2898 32.47 46.2293C30.7447 48.0838 29.3996 50.2558 28.51 52.6237C27.6218 54.9725 27.176 57.4643 27.195 59.9741C27.128 63.5459 27.6205 67.1062 28.655 70.5268C29.56 73.3355 31.07 75.9151 33.075 78.0814C35.15 80.183 37.65 81.8164 40.405 82.8821C43.67 84.1271 47.09 84.9239 50.57 85.2526C49.595 86.1268 48.8237 87.2027 48.31 88.405C47.8182 89.5921 47.4821 90.8374 47.31 92.1101C45.4756 92.9856 43.4691 93.4448 41.435 93.4547C39.546 93.5244 37.6829 92.9999 36.11 91.9557C34.6023 90.8446 33.3254 89.4527 32.35 87.8572C31.9152 87.1852 31.427 86.549 30.89 85.9548C30.3251 85.3287 29.7023 84.7568 29.03 84.2467C28.3633 83.7487 27.6433 83.3503 26.87 83.0515C26.1118 82.7203 25.2929 82.5491 24.465 82.5485C24.265 82.5485 24.065 82.5651 23.865 82.5983C23.592 82.5999 23.3202 82.6333 23.055 82.6979C22.8221 82.7577 22.6019 82.859 22.405 82.9967C22.3166 83.0474 22.2427 83.1198 22.1902 83.2069C22.1377 83.2941 22.1084 83.3931 22.105 83.4947C22.126 83.7344 22.1996 83.9665 22.3205 84.1747C22.4415 84.383 22.6069 84.5622 22.805 84.6998C23.2717 85.0684 23.6583 85.3522 23.965 85.5514L24.115 85.651C24.7817 86.1689 25.4183 86.7217 26.025 87.3094C26.5883 87.8007 27.0883 88.3502 27.525 88.9577C27.9783 89.5487 28.3633 90.1795 28.68 90.8501C29.0467 91.5208 29.4317 92.291 29.835 93.1609C30.775 95.5164 32.445 97.5134 34.605 98.863C36.87 100.073 39.41 100.676 41.985 100.611C42.8583 100.611 43.7283 100.561 44.595 100.462C45.455 100.325 46.3133 100.174 47.17 100.008V108.689C47.1856 109.038 47.1268 109.388 46.9976 109.714C46.8683 110.039 46.6715 110.334 46.42 110.579C46.1684 110.824 45.8679 111.013 45.5379 111.135C45.2079 111.256 44.8559 111.307 44.505 111.283H44.195C32.5366 107.531 22.606 99.7574 16.1915 89.3608C9.77692 78.9641 7.29991 66.6281 9.20647 54.574C11.113 42.5198 17.2779 31.5397 26.5909 23.6108C35.9039 15.6819 47.7532 11.3251 60.005 11.3251C72.2568 11.3251 84.1061 15.6819 93.4191 23.6108C102.732 31.5397 108.897 42.5198 110.804 54.574C112.71 66.6281 110.233 78.9641 103.819 89.3608C97.404 99.7574 87.4734 107.531 75.815 111.283V111.308Z" fill="black"/>
</svg>
