<svg width="120" height="120" viewBox="0 0 120 120" fill="none" xmlns="http://www.w3.org/2000/svg">
<path d="M57.9422 15C57.9422 25.8 66.6882 34.545 77.4872 34.545H85.456V42.2578C85.456 53.0578 94.201 61.8028 105.001 61.8028V18.7294C105 17.7406 104.608 16.7924 103.908 16.0932C103.209 15.3939 102.261 15.0007 101.273 15H57.9422ZM36.4716 36.5991C36.4716 47.3981 45.2138 56.1441 56.0129 56.1441H63.9854V63.8569C63.9854 74.6569 72.7304 83.4019 83.5304 83.4019V40.3284C83.5289 39.34 83.1356 38.3926 82.4367 37.6937C81.7378 36.9948 80.7903 36.6015 79.8019 36.6L36.4716 36.5991ZM15.001 58.1981C15.001 68.9981 23.7422 77.7431 34.5422 77.7431H42.5147V85.4559C42.5147 96.2597 51.2607 105.001 62.0597 105.001V61.9312C62.0587 60.9424 61.6657 59.9944 60.9668 59.2949C60.2678 58.5955 59.3201 58.2017 58.3313 58.2H15.001V58.1981Z" fill="black"/>
</svg>
